Coordinates
version=1
nRows=7
nColumns=33
inDegrees=yes

Units are S.I. units (second, meters, Newtons, ...)
Angles are in degrees.

endheader
time	ground_thorax_rot_x	ground_thorax_rot_y	ground_thorax_rot_z	ground_thorax_tx	ground_thorax_ty	ground_thorax_tz	clav_prot_r	clav_elev_r	scapula_abduction_r	scapula_elevation_r	scapula_upward_rot_r	scapula_winging_r	shoulder_elv_r	plane_of_elev_r	axial_rot_r	elbow_flexion_r	pro_sup_r	wrist_flex_r	wrist_dev_r	clav_prot_l	clav_elev_l	scapula_abduction_l	scapula_elevation_l	scapula_upward_rot_l	scapula_winging_l	shoulder_elv_l	plane_of_elev_l	axial_rot_l	elbow_flexion_l	pro_sup_l	wrist_flex_l	wrist_dev_l
     11.47000000	     30.94658120	     31.13131224	     36.86279613	    -35.06391528	    781.60189382	    -36.22672644	     11.63817001	     35.29397585	     24.70788634	     45.00000000	    -45.00000000	  -3685.65124424	  -2627.29157022	    160.18199669	     27.65671252	   1800.34959091	    167.21688630	     12.62860886	     14.56443461	    -10.96410309	    -45.00000000	    -35.33585692	     45.00000000	    -45.00000000	  -4936.37484672	   -644.26721495	     23.10926483	     18.14560296	   1069.48636448	     43.50004853	     12.54338195	    -15.85154994
     11.48000000	     31.04048682	     30.89105591	     36.57057302	    -38.64439364	    783.33086796	    -36.14128854	     11.98139604	     35.09948743	     24.62212556	     45.00000000	    -45.00000000	  -3685.82174888	  -2627.25955855	    160.20965712	     27.74247580	   1800.27692754	    168.34203445	     12.54848736	     14.78920025	    -10.78496702	    -45.00000000	    -35.58818220	     45.00000000	    -45.00000000	  -4936.18744529	   -644.24407814	     23.13124086	     18.29146352	   1069.52831903	     43.19156307	     12.60540064	    -15.91512809
     11.49000000	     31.17908511	     30.67402024	     36.29452975	    -42.03053820	    785.21121131	    -36.02440678	     11.98968681	     35.02562888	     24.56357368	     45.00000000	    -45.00000000	  -3686.03647207	  -2627.13947620	    160.15496049	     27.72923380	   1800.24816638	    168.90375343	     12.53920675	     14.90891842	    -10.62809411	    -45.00000000	    -35.72438687	     45.00000000	    -45.00000000	  -4936.00855735	   -644.16242405	     23.18083247	     18.41655611	   1069.48834052	     42.90302180	     12.69371661	    -15.96164081
     11.50000000	     31.31449416	     30.43472447	     35.98302009	    -45.29763330	    787.19435362	    -35.89650751	     12.00027333	     34.99222838	     24.51748570	     45.00000000	    -45.00000000	  -3686.19328069	  -2627.05944804	    160.13472871	     27.59227373	   1800.21208500	    169.14295675	     12.53363080	     15.00994440	    -10.50481390	    -45.00000000	    -35.84243431	     45.00000000	    -45.00000000	  -4935.87724235	   -644.05158661	     23.22599158	     18.71348146	   1069.45898371	     42.63235378	     12.75624207	    -15.99334798
     11.51000000	     31.43023632	     30.19175346	     35.69005859	    -48.49620165	    789.24945077	    -35.77065277	     11.95906146	     34.99893802	     24.48297045	     45.00000000	    -45.00000000	  -3686.33912377	  -2626.98205421	    160.12322498	     27.53947520	   1800.17981906	    169.27513639	     12.52548447	     15.09815464	    -10.36726744	    -45.00000000	    -35.96097496	     45.00000000	    -45.00000000	  -4935.75505257	   -643.92137999	     23.28520853	     18.99243173	   1069.42614603	     42.39263122	     12.81162975	    -16.02187061
     11.52000000	     31.54465937	     29.98957287	     35.40462395	    -51.57999067	    791.39354791	    -35.63982567	     12.03928970	     34.88453522	     24.43965631	     45.00000000	    -45.00000000	  -3686.55951088	  -2626.91928389	    160.06244483	     27.48548822	   1800.12853943	    169.19508368	     12.52860189	     15.18196956	    -10.21235806	    -45.00000000	    -36.14802307	     45.00000000	    -45.00000000	  -4935.60369335	   -643.83914396	     23.33329447	     19.24162355	   1069.40519774	     42.17516436	     12.90788063	    -16.10403430
     11.53000000	     31.65851533	     29.76542024	     35.12079952	    -54.56566534	    793.61534952	    -35.50866882	     12.01121436	     34.89718216	     24.44452220	     45.00000000	    -45.00000000	  -3686.71691627	  -2626.84133738	    160.06537749	     27.36220154	   1800.08976994	    168.99411088	     12.55232025	     15.23673688	    -10.10892331	    -45.00000000	    -36.25497815	     45.00000000	    -45.00000000	  -4935.48886099	   -643.70994090	     23.39178528	     19.48967958	   1069.40014209	     41.99847592	     12.96572299	    -16.16537778
